<svg width="81" height="81" viewBox="0 0 81 81" fill="none" xmlns="http://www.w3.org/2000/svg">
<g clip-path="url(#clip0_2_161)">
<path d="M18.2539 57.5029C17.372 57.5029 16.5644 57.5029 15.6979 57.5029C15.6979 56.6176 15.6979 55.7933 15.6979 54.871C15.9904 54.871 16.2785 54.871 16.5688 54.871C21.8793 54.871 27.1898 54.8819 32.4982 54.8688C39.5876 54.8492 45.3761 50.0716 46.7665 43.1179C48.3467 35.2092 42.591 27.2503 34.5761 26.2799C33.7947 26.1862 33.0024 26.1382 32.2166 26.136C27.0152 26.1229 21.8138 26.1295 16.6125 26.1295C16.3178 26.1295 16.0253 26.1295 15.6848 26.1295C15.6848 25.2616 15.6848 24.4548 15.6848 23.5586C16.488 23.5586 17.3153 23.5586 18.2517 23.5586C18.2517 23.1836 18.2517 22.8957 18.2517 22.6079C18.2517 17.3834 18.2495 12.1567 18.2517 6.93212C18.2539 2.78476 21.0172 0.00458938 25.149 0.00458938C41.4647 0.000228324 57.776 0.000228324 74.0873 0.00240885C78.2235 0.00240885 80.9956 2.77604 80.9978 6.91904C80.9999 29.3174 80.9999 51.7158 80.9978 74.1119C80.9978 78.2026 78.2148 80.9937 74.1353 80.9959C57.7978 81.0002 41.4581 81.0002 25.1206 80.9959C21.0412 80.9959 18.2626 78.2026 18.2582 74.1141C18.2539 68.8896 18.256 63.6629 18.256 58.4383C18.2539 58.1461 18.2539 57.8539 18.2539 57.5029ZM20.8687 23.5172C21.2616 23.5172 21.5541 23.5172 21.8488 23.5172C25.3607 23.5172 28.8749 23.491 32.3868 23.5325C33.5786 23.5477 34.7834 23.648 35.9556 23.8595C44.7933 25.4666 51.0184 34.4722 49.4032 43.2619C47.8513 51.707 40.967 57.4636 32.3868 57.4832C28.8465 57.4898 25.3062 57.4854 21.768 57.4854C21.4821 57.4854 21.194 57.4854 20.8687 57.4854C20.8687 57.819 20.8687 58.0349 20.8687 58.2486C20.8687 63.556 20.8644 68.8612 20.8709 74.1686C20.8731 76.7635 22.5058 78.3858 25.1141 78.3858C37.9658 78.3879 50.8197 78.3879 63.6715 78.3858C66.2842 78.3858 67.9234 76.7656 67.9256 74.1773C67.9278 51.7267 67.9278 29.2738 67.9256 6.82309C67.9256 4.26098 66.2973 2.61904 63.7522 2.61904C50.8459 2.61468 37.9374 2.61468 25.0311 2.61904C22.5319 2.61904 20.8796 4.26752 20.8709 6.75332C20.8622 9.23039 20.8687 11.7053 20.8687 14.1824C20.8687 17.2525 20.8687 20.3249 20.8687 23.5172ZM69.2417 2.62122C70.1432 3.99277 70.5492 5.35996 70.5492 6.87543C70.5383 29.2956 70.5383 51.7158 70.547 74.1359C70.547 75.5075 70.2392 76.77 69.5168 77.9366C69.4425 78.0565 69.4054 78.2004 69.329 78.3858C70.8788 78.3858 72.3477 78.3858 73.8167 78.3858C76.8812 78.3858 78.3851 76.8877 78.3851 73.8394C78.3851 51.6089 78.3851 29.3806 78.3851 7.15017C78.3851 6.85144 78.3938 6.55053 78.372 6.25179C78.2345 4.31113 76.6476 2.69972 74.7029 2.6343C72.9349 2.57543 71.1647 2.62122 69.2417 2.62122Z" fill="#FFBB41"/>
<path d="M26.116 52.444C26.116 44.3848 26.116 36.6308 26.116 28.7875C29.4315 28.6893 32.7448 28.4626 35.7766 30.2441C38.577 31.8925 40.4738 34.2497 41.3534 37.3875C43.1061 43.6281 39.4152 50.2177 33.0657 51.7898C30.8655 52.3371 28.5017 52.239 26.116 52.444ZM28.7461 49.6267C32.8867 49.8448 36.1324 48.41 38.0684 44.7664C39.8954 41.3277 39.5505 37.913 37.1604 34.8341C35.0454 32.1106 32.1402 31.1315 28.7461 31.3932C28.7461 37.503 28.7461 43.5278 28.7461 49.6267Z" fill="#FFBB41"/>
<path d="M9.13892 31.356C9.13892 30.4424 9.13892 29.6378 9.13892 28.7416C10.7956 28.7416 12.4217 28.7307 14.0456 28.7459C15.3509 28.7568 16.6758 28.6631 17.957 28.8593C20.6505 29.2736 22.4468 30.8828 23.2086 33.4929C23.966 36.0899 23.1933 38.3119 21.2507 40.1544C21.1525 40.2482 21.0477 40.3332 20.7443 40.6014C20.9801 40.7366 21.2202 40.8195 21.3882 40.9787C23.3723 42.8343 23.9987 45.5665 23.0318 48.0785C22.0758 50.5621 19.7316 52.2193 17.0425 52.2498C14.432 52.2803 11.8236 52.2564 9.16074 52.2564C9.16074 51.382 9.16074 50.5577 9.16074 49.6463C10.1779 49.6463 11.1776 49.6463 12.1772 49.6463C13.8099 49.6463 15.4447 49.6768 17.0774 49.6354C19.2012 49.5809 20.8753 47.819 20.8688 45.7104C20.86 43.604 19.1772 41.8509 17.0468 41.8204C14.4363 41.7833 11.8258 41.8116 9.16293 41.8116C9.16293 40.9351 9.16293 40.1086 9.16293 39.195C10.012 39.195 10.848 39.195 11.6839 39.195C13.4541 39.195 15.2243 39.2168 16.9945 39.1863C19.1728 39.1492 20.8753 37.4004 20.8709 35.2613C20.8644 33.1222 19.1531 31.3865 16.9704 31.3626C14.3818 31.3364 11.7996 31.356 9.13892 31.356Z" fill="#FFBB41"/>
<path d="M2.52979 26.0965C1.66981 26.0965 0.864393 26.0965 0.0065918 26.0965C0.0065918 25.2526 0.0065918 24.4306 0.0065918 23.5605C0.842566 23.5605 1.66763 23.5605 2.52979 23.5605C2.52979 24.4001 2.52979 25.2047 2.52979 26.0965Z" fill="#FFBB41"/>
<path d="M7.7617 23.5586C7.7617 24.4068 7.7617 25.2092 7.7617 26.0706C6.93227 26.0706 6.10721 26.0706 5.23413 26.0706C5.23413 25.2463 5.23413 24.4243 5.23413 23.5586C6.05919 23.5586 6.86243 23.5586 7.7617 23.5586Z" fill="#FFBB41"/>
<path d="M10.4421 26.066C10.4421 25.22 10.4421 24.4175 10.4421 23.5649C11.2956 23.5649 12.1185 23.5649 12.985 23.5649C12.985 24.3957 12.985 25.1982 12.985 26.066C12.173 26.066 11.348 26.066 10.4421 26.066Z" fill="#FFBB41"/>
<path d="M0 54.9082C0.840339 54.9082 1.64357 54.9082 2.50792 54.9082C2.50792 55.7303 2.50792 56.5523 2.50792 57.4289C1.69159 57.4289 0.868715 57.4289 0 57.4289C0 56.6134 0 55.8088 0 54.9082Z" fill="#FFBB41"/>
<path d="M7.74198 57.4441C6.87108 57.4441 6.06567 57.4441 5.22314 57.4441C5.22314 56.6024 5.22314 55.7978 5.22314 54.9321C6.03947 54.9321 6.86235 54.9321 7.74198 54.9321C7.74198 55.7411 7.74198 56.5632 7.74198 57.4441Z" fill="#FFBB41"/>
<path d="M10.4463 57.4397C10.4463 56.5915 10.4463 55.789 10.4463 54.9277C11.2757 54.9277 12.1008 54.9277 12.9739 54.9277C12.9739 55.752 12.9739 56.574 12.9739 57.4397C12.1488 57.4397 11.3456 57.4397 10.4463 57.4397Z" fill="#FFBB41"/>
<path d="M20.8688 23.5169C20.8688 20.3246 20.8688 17.2522 20.8688 14.1799C20.8688 11.7028 20.8623 9.2279 20.871 6.75083C20.8797 4.26503 22.532 2.61655 25.0312 2.61655C37.9375 2.61219 50.846 2.61219 63.7523 2.61655C66.2973 2.61655 67.9256 4.25849 67.9256 6.8206C67.9278 29.2713 67.9278 51.7242 67.9256 74.1749C67.9256 76.7631 66.2864 78.3833 63.6715 78.3833C50.8198 78.3855 37.9659 78.3855 25.1142 78.3833C22.5037 78.3833 20.8732 76.761 20.871 74.1661C20.8666 68.8587 20.8688 63.5535 20.8688 58.2461C20.8688 58.0302 20.8688 57.8166 20.8688 57.4829C21.194 57.4829 21.4822 57.4829 21.7681 57.4829C25.3084 57.4829 28.8488 57.4895 32.3869 57.4807C40.9649 57.4633 47.8513 51.7045 49.4032 43.2594C51.0184 34.4697 44.7934 25.4641 35.9556 23.857C34.7835 23.6434 33.5787 23.5431 32.3869 23.53C28.875 23.4885 25.3608 23.5147 21.8488 23.5147C21.5564 23.5169 21.2617 23.5169 20.8688 23.5169ZM40.4585 5.23972C35.5256 5.23972 30.6626 5.21356 25.7995 5.25935C24.6427 5.27025 23.5819 6.306 23.5273 7.46386C23.4422 9.29986 23.5055 11.1446 23.5055 13.0177C24.3851 13.0177 25.2102 13.0177 26.1226 13.0177C26.1226 11.2754 26.1226 9.57897 26.1226 7.79966C30.9551 7.79966 35.6981 7.79966 40.4585 7.79966C40.4585 6.92745 40.4585 6.14246 40.4585 5.23972ZM65.3129 60.1432C64.3722 60.1432 63.5668 60.1432 62.6762 60.1432C62.6762 64.4955 62.6762 68.802 62.6762 73.1936C60.8952 73.1936 59.1992 73.1936 57.512 73.1936C57.512 74.0876 57.512 74.8923 57.512 75.771C59.1512 75.771 60.7489 75.7732 62.3467 75.771C64.2849 75.7666 65.3086 74.7418 65.3108 72.7946C65.3151 68.826 65.3108 64.8575 65.3108 60.8867C65.3129 60.6512 65.3129 60.4136 65.3129 60.1432ZM45.6446 7.8062C45.6446 6.90783 45.6446 6.08359 45.6446 5.26589C44.7781 5.26589 43.9749 5.26589 43.1367 5.26589C43.1367 6.1272 43.1367 6.95144 43.1367 7.8062C43.988 7.8062 44.7912 7.8062 45.6446 7.8062ZM65.2496 52.2257C65.2496 51.3208 65.2496 50.4965 65.2496 49.6854C64.3809 49.6854 63.5777 49.6854 62.7461 49.6854C62.7461 50.551 62.7461 51.3731 62.7461 52.2257C63.5995 52.2257 64.4028 52.2257 65.2496 52.2257ZM65.2736 54.9165C64.3722 54.9165 63.5668 54.9165 62.7504 54.9165C62.7504 55.7865 62.7504 56.6085 62.7504 57.4241C63.6279 57.4241 64.453 57.4241 65.2736 57.4241C65.2736 56.5584 65.2736 55.7538 65.2736 54.9165ZM23.5383 60.1345C23.5383 61.0132 23.5383 61.8374 23.5383 62.6464C24.4179 62.6464 25.2429 62.6464 26.0571 62.6464C26.0571 61.7807 26.0571 60.9761 26.0571 60.1345C25.2146 60.1345 24.4091 60.1345 23.5383 60.1345ZM23.5208 67.8906C24.4201 67.8906 25.2255 67.8906 26.0484 67.8906C26.0484 67.0227 26.0484 66.2007 26.0484 65.3786C25.1731 65.3786 24.3502 65.3786 23.5208 65.3786C23.5208 66.2421 23.5208 67.0445 23.5208 67.8906ZM23.5273 70.5814C23.5273 71.4797 23.5273 72.2822 23.5273 73.1086C24.3939 73.1086 25.2167 73.1086 26.0418 73.1086C26.0418 72.2342 26.0418 71.4121 26.0418 70.5814C25.1775 70.5814 24.3742 70.5814 23.5273 70.5814Z" fill="white"/>
<path d="M69.2417 2.62097C71.1647 2.62097 72.9348 2.57518 74.7006 2.63405C76.6454 2.69947 78.2322 4.31088 78.3697 6.25155C78.3916 6.55028 78.3828 6.84901 78.3828 7.14992C78.3828 29.3804 78.3828 51.6087 78.3828 73.8391C78.3828 76.8875 76.8768 78.3855 73.8144 78.3855C72.3455 78.3855 70.8765 78.3855 69.3268 78.3855C69.4032 78.198 69.4403 78.0563 69.5145 77.9363C70.237 76.7719 70.547 75.5072 70.5448 74.1357C70.536 51.7155 70.536 29.2953 70.5469 6.87518C70.5491 5.35971 70.1453 3.99252 69.2417 2.62097Z" fill="white"/>
<path d="M28.7461 49.627C28.7461 43.528 28.7461 37.5011 28.7461 31.3934C32.1402 31.1296 35.0454 32.1108 37.1604 34.8343C39.5504 37.9132 39.8953 41.3279 38.0684 44.7666C36.1323 48.4103 32.8867 49.845 28.7461 49.627Z" fill="white"/>
<path d="M40.4586 5.23982C40.4586 6.14037 40.4586 6.92754 40.4586 7.79757C35.7003 7.79757 30.9551 7.79757 26.1226 7.79757C26.1226 9.5747 26.1226 11.2711 26.1226 13.0156C25.2102 13.0156 24.3852 13.0156 23.5055 13.0156C23.5055 11.1425 23.4422 9.29995 23.5274 7.46177C23.5819 6.30391 24.6427 5.26816 25.7996 5.25726C30.6648 5.21583 35.5279 5.23982 40.4586 5.23982Z" fill="#FFBB41"/>
<path d="M65.3129 60.1436C65.3129 60.4139 65.3129 60.6516 65.3129 60.8893C65.3129 64.8578 65.3151 68.8264 65.3129 72.7971C65.3108 74.7422 64.2871 75.767 62.3488 75.7735C60.7511 75.7779 59.1534 75.7735 57.5142 75.7735C57.5142 74.8948 57.5142 74.0902 57.5142 73.1962C59.2014 73.1962 60.8973 73.1962 62.6784 73.1962C62.6784 68.8046 62.6784 64.4981 62.6784 60.1457C63.5646 60.1436 64.37 60.1436 65.3129 60.1436Z" fill="#FFBB41"/>
<path d="M45.6446 7.80643C44.7912 7.80643 43.988 7.80643 43.1367 7.80643C43.1367 6.95166 43.1367 6.12742 43.1367 5.26611C43.9749 5.26611 44.7781 5.26611 45.6446 5.26611C45.6446 6.08381 45.6446 6.90805 45.6446 7.80643Z" fill="#FFBB41"/>
<path d="M65.2496 52.2259C64.4028 52.2259 63.5995 52.2259 62.7461 52.2259C62.7461 51.3733 62.7461 50.5512 62.7461 49.6855C63.5755 49.6855 64.3809 49.6855 65.2496 49.6855C65.2496 50.4967 65.2496 51.3209 65.2496 52.2259Z" fill="#FFBB41"/>
<path d="M65.2737 54.9165C65.2737 55.756 65.2737 56.5584 65.2737 57.4241C64.453 57.4241 63.6279 57.4241 62.7505 57.4241C62.7505 56.6086 62.7505 55.7865 62.7505 54.9165C63.5668 54.9165 64.3722 54.9165 65.2737 54.9165Z" fill="#FFBB41"/>
<path d="M23.5383 60.1348C24.4092 60.1348 25.2146 60.1348 26.0572 60.1348C26.0572 60.9764 26.0572 61.7811 26.0572 62.6467C25.2408 62.6467 24.418 62.6467 23.5383 62.6467C23.5383 61.8378 23.5383 61.0135 23.5383 60.1348Z" fill="#FFBB41"/>
<path d="M23.5208 67.8908C23.5208 67.0448 23.5208 66.2424 23.5208 65.3789C24.348 65.3789 25.173 65.3789 26.0483 65.3789C26.0483 66.201 26.0483 67.023 26.0483 67.8908C25.2233 67.8908 24.42 67.8908 23.5208 67.8908Z" fill="#FFBB41"/>
<path d="M23.5273 70.5815C24.3742 70.5815 25.1796 70.5815 26.0418 70.5815C26.0418 71.4123 26.0418 72.2344 26.0418 73.1088C25.2189 73.1088 24.3939 73.1088 23.5273 73.1088C23.5273 72.2845 23.5273 71.4799 23.5273 70.5815Z" fill="#FFBB41"/>
</g>
<defs>
<clipPath id="clip0_2_161">
<rect width="81" height="81" fill="white"/>
</clipPath>
</defs>
</svg>
