<svg width="83" height="81" viewBox="0 0 83 81" fill="none" xmlns="http://www.w3.org/2000/svg">
<g clip-path="url(#clip0_2_129)">
<path d="M57.3404 64.7959C57.7932 64.7959 58.105 64.7959 58.4168 64.7959C64.1797 64.7959 69.9427 64.8004 75.7056 64.7936C80.0295 64.7891 82.9814 61.9154 82.9883 57.7027C82.9953 53.9905 82.9907 50.2805 82.9883 46.5683C82.9883 45.865 83.0184 45.1595 82.9699 44.4608C82.9191 43.7148 82.3185 43.2031 81.5979 43.2076C80.8749 43.2121 80.3136 43.726 80.2351 44.4743C80.2097 44.7245 80.2235 44.9792 80.2235 45.2339C80.2235 49.3113 80.2235 53.3887 80.2235 57.4661C80.2235 60.5157 78.6067 62.1002 75.4954 62.1002C53.2798 62.1002 31.0643 62.1002 8.84641 62.1002C5.03063 62.1002 2.76704 59.8981 2.76473 56.1858C2.76242 42.5765 2.76473 28.9672 2.76473 15.3579C2.76473 12.4278 4.41623 10.8094 7.4051 10.8094C14.868 10.8072 22.331 10.8095 29.7939 10.8072C30.0826 10.8072 30.3783 10.8342 30.6554 10.7756C31.353 10.6291 31.7849 10.1896 31.7942 9.48413C31.8034 8.73808 31.3669 8.28053 30.6254 8.13402C30.376 8.08443 30.108 8.10923 29.8493 8.10923C22.3564 8.10923 14.8657 8.10697 7.37276 8.10923C2.93103 8.11148 0.00222062 10.956 0.00222062 15.279C-8.91662e-05 28.9447 -8.91662e-05 42.6103 0.00222062 56.2737C0.00453041 61.3361 3.55237 64.7914 8.74708 64.7936C14.0481 64.7982 19.3513 64.7937 24.6523 64.7959C24.9503 64.7959 25.2459 64.8207 25.6224 64.8387C25.4307 65.2084 25.3083 65.4924 25.1443 65.7493C22.2825 70.2572 18.1271 72.6576 12.7084 72.8763C10.066 72.9822 8.31746 74.5938 8.3013 77.1588C8.29668 77.8057 8.29899 78.4525 8.3013 79.0994C8.30361 80.587 8.71937 80.9905 10.2554 80.9905C17.2564 80.9905 24.2596 80.9905 31.2606 80.9905C31.5193 80.9905 31.7872 81.0153 32.0367 80.9612C32.7366 80.8124 33.1454 80.3797 33.187 79.6742C33.2262 79.0093 32.7204 78.4255 32.0182 78.3173C31.7364 78.2745 31.4431 78.2925 31.1567 78.2925C24.7886 78.2925 18.4205 78.2925 12.0524 78.2925C11.7452 78.2925 11.438 78.2925 11.1446 78.2925C10.8813 76.3564 11.1423 75.5652 13.4845 75.5697C32.2423 75.6126 51.0001 75.5923 69.7602 75.5945C70.0489 75.5945 70.3376 75.5765 70.624 75.6058C71.3424 75.6802 71.802 76.0791 71.899 76.7711C71.966 77.2557 71.9129 77.7561 71.9129 78.2925C71.4671 78.2925 71.123 78.2925 70.7811 78.2925C59.8881 78.2925 48.9975 78.2925 38.1045 78.2925C37.7881 78.2925 37.4624 78.261 37.1552 78.3173C36.4114 78.4548 35.9749 78.9146 35.9818 79.6629C35.9887 80.3707 36.4161 80.8124 37.1159 80.9567C37.4208 81.0198 37.7465 80.9882 38.0629 80.9882C49.5611 80.9905 61.0569 80.9882 72.555 80.9882C72.6705 80.9882 72.786 80.9882 72.9015 80.9882C74.2088 80.9792 74.6847 80.5262 74.6939 79.2775C74.6985 78.7163 74.6939 78.1528 74.6939 77.5915C74.6939 74.4338 73.1094 72.9011 69.8641 72.883C69.125 72.8785 68.3466 72.9056 67.6537 72.6982C66.4757 72.3489 65.3346 71.8575 64.2051 71.3707C61.1354 70.0498 58.8811 67.9018 57.3404 64.7959Z" fill="white"/>
<path d="M35.0139 13.4288C32.2722 13.8773 29.3526 14.371 26.4261 14.8172C25.62 14.9412 25.1396 15.3018 24.8601 16.0479C23.8507 18.7368 22.7951 21.4078 21.7788 24.0945C21.0282 26.0847 21.7904 28.0276 23.6151 28.8728C25.4191 29.7068 27.4101 29.0802 28.535 27.3063C29.1563 26.3259 29.8585 25.3792 30.3343 24.3356C30.8794 23.1388 31.7063 22.7308 32.9605 22.9652C33.016 22.9765 33.0714 22.99 33.1453 23.0081C33.1777 23.105 33.2123 23.2087 33.2516 23.3124C33.5149 24.0043 34.0207 24.3942 34.776 24.2748C35.5637 24.1531 35.9517 23.6257 35.961 22.8435C35.9656 22.5347 35.9656 22.226 35.9633 21.9149C35.9471 20.7496 35.469 20.2673 34.2933 20.256C33.1407 20.247 31.9858 20.2853 30.8355 20.2425C29.9832 20.2132 29.4358 20.5513 29.0177 21.2635C28.1285 22.7737 27.1814 24.25 26.2737 25.7511C25.9318 26.3146 25.5068 26.7293 24.8116 26.4093C24.114 26.0892 24.1649 25.51 24.4074 24.8924C25.1673 22.9517 25.9965 21.0314 26.6225 19.0501C27.0221 17.7857 27.6642 17.2064 29.0408 17.087C31.0988 16.9066 33.1292 16.3409 35.1872 16.2417C38.2915 16.093 41.4098 16.1876 44.5211 16.2214C44.9114 16.226 45.3641 16.3905 45.6736 16.6249C47.5838 18.0719 49.4732 19.5483 51.3465 21.0449C51.9286 21.5115 52.5176 21.6512 53.2613 21.534C55.1923 21.2297 57.1348 20.9795 59.0751 20.7248C60.1006 20.5896 60.7751 21.0336 60.849 21.8495C60.9206 22.6181 60.3593 23.1704 59.3915 23.2898C57.2203 23.558 55.0468 23.8037 52.8802 24.108C51.9309 24.241 51.1109 24.1396 50.2886 23.5851C49.1545 22.821 47.9372 22.1719 46.7477 21.4844C45.2787 20.6347 44.2693 21.1936 44.2624 22.8525C44.2577 24.2184 44.2624 25.5866 44.2624 27.0043C43.8374 27.0043 43.5255 27.0043 43.2114 27.0043C40.4165 27.0043 37.6217 26.9998 34.8269 27.0066C33.8036 27.0088 33.3578 27.383 33.1869 28.3634C32.8289 30.4123 32.4709 32.4611 32.1452 34.5145C32.0551 35.0847 31.8311 35.3326 31.2051 35.4701C27.8467 36.2117 24.4697 36.6332 21.0166 36.4641C19.8825 36.4078 19.372 36.9465 19.3697 38.0441C19.3605 41.0238 19.3605 44.0058 19.3697 46.9855C19.3743 48.1193 19.9356 48.6625 21.0859 48.5813C23.5943 48.4078 25.5392 47.2695 26.7518 45.1148C27.1121 44.4724 27.5302 44.2718 28.2139 44.2109C31.3968 43.9359 34.5751 43.5685 37.7626 43.3409C39.1323 43.244 39.943 42.7256 40.502 41.4769C41.3959 39.4799 42.4769 37.5618 43.5024 35.5648C44.5742 36.0854 45.5974 36.5362 46.5629 37.0817C46.8747 37.2575 47.1819 37.6542 47.2489 37.9945C47.6693 40.1471 48.0158 42.3108 48.3946 44.4701C48.584 45.5453 49.009 45.8879 50.15 45.8946C51.4458 45.9014 52.7439 45.8743 54.0397 45.9081C55.8229 45.9532 57.4097 47.114 57.7123 48.5971C55.1992 48.5971 52.6977 48.5948 50.1962 48.5993C49.0459 48.6016 48.3992 49.111 48.42 49.9788C48.4408 50.815 49.069 51.2951 50.1731 51.2973C53.0835 51.3018 55.9938 51.2996 58.9041 51.2973C60.5048 51.2973 61.0476 50.6978 60.812 49.1561C60.4563 46.8368 59.2506 45.0764 57.1071 43.9788C56.6567 43.7489 56.4188 43.5009 56.3657 42.9758C56.0562 40.0118 55.6797 37.0569 55.3794 34.093C55.3008 33.3244 55.0075 32.7924 54.3446 32.3687C52.0764 30.9262 49.8313 29.4543 47.5861 27.978C47.3667 27.8338 47.0757 27.6016 47.0618 27.3942C47.0018 26.5761 47.0364 25.7511 47.0364 24.8045C47.8287 25.2643 48.5031 25.5888 49.0991 26.0171C50.2262 26.8285 51.3973 27.0855 52.8132 26.8465C55.3078 26.4273 57.8462 26.2583 60.3408 25.8435C62.5721 25.4739 63.9649 23.4093 63.5953 21.2951C63.2257 19.1696 61.2255 17.7271 58.9988 18.0088C57.2572 18.2297 55.518 18.4709 53.7833 18.7346C53.2013 18.8225 52.7532 18.703 52.2889 18.3289C50.6258 16.9833 48.9489 15.6535 47.2281 14.38C46.5976 13.9134 45.833 13.6249 45.1239 13.253C45.2648 12.6219 45.5951 11.7834 45.6136 10.9405C45.6806 7.7917 45.6528 4.64294 45.639 1.49192C45.6344 0.540759 45.1077 0.0336217 44.1399 0.0133362C43.1906 -0.00694929 42.2367 -0.00920324 41.2873 0.0155901C38.0606 0.10124 35.2588 2.36871 34.7529 5.48366C34.5197 6.91266 34.5566 8.39801 34.6028 9.85405C34.6374 11.0419 34.8684 12.2184 35.0139 13.4288Z" fill="white"/>
<path d="M51.2197 56.6978C57.4423 56.6978 63.6671 56.6978 69.8897 56.6978C70.1484 56.6978 70.4117 56.7136 70.6658 56.6843C71.4142 56.5942 71.9616 56.0036 71.9131 55.3117C71.8623 54.5701 71.4234 54.1283 70.6727 54.0179C70.3909 53.9751 70.0976 54.0021 69.8089 54.0021C57.3337 54.0021 44.8585 53.9999 32.3833 54.0089C31.859 54.0089 31.531 53.93 31.2423 53.4003C30.4939 52.0276 29.2443 51.3109 27.6483 51.3199C26.0522 51.3267 24.8165 52.057 24.0681 53.4296C23.8002 53.921 23.5022 54.0156 22.9963 54.0134C20.5179 53.9931 18.0418 53.9999 15.5634 54.0066C14.4709 54.0089 13.8403 54.5093 13.8403 55.3522C13.838 56.1952 14.4709 56.7001 15.5611 56.7024C18.0395 56.7091 20.5179 56.7159 22.994 56.6933C23.5022 56.6888 23.7978 56.7948 24.0635 57.2794C24.8142 58.6498 26.0476 59.3823 27.6436 59.3913C29.2397 59.4003 30.4893 58.6881 31.2446 57.3177C31.5287 56.8038 31.8405 56.6933 32.3787 56.6956C38.6567 56.7046 44.9394 56.6978 51.2197 56.6978Z" fill="white"/>
<path d="M77.4589 37.8297C77.4589 34.3722 77.4612 30.9124 77.4589 27.4548C77.4566 26.1137 77.0062 25.6607 75.6711 25.6562C74.0566 25.6517 72.4444 25.6472 70.8298 25.6584C69.6541 25.6652 69.1622 26.1498 69.1622 27.3151C69.1575 34.3158 69.1575 41.3166 69.1622 48.3196C69.1622 49.4691 69.6657 49.9424 70.8599 49.9492C72.4744 49.9582 74.0866 49.956 75.7012 49.9492C76.9854 49.9447 77.4566 49.4781 77.4589 48.2046C77.4612 44.7448 77.4589 41.2873 77.4589 37.8297Z" fill="white"/>
<path d="M63.2834 8.10706C58.9918 8.10706 54.7025 8.10706 50.411 8.10706C50.1245 8.10706 49.8266 8.08002 49.5494 8.14087C48.8518 8.29414 48.4338 8.73591 48.4268 9.44365C48.4199 10.1536 48.8357 10.6022 49.5263 10.7667C49.8266 10.8366 50.1569 10.805 50.4733 10.805C58.8255 10.8073 67.1754 10.805 75.5276 10.8073C78.5858 10.8073 80.2258 12.4008 80.2258 15.3783C80.2281 23.0778 80.2258 30.7772 80.2258 38.4767C80.2258 38.7585 80.198 39.0447 80.2489 39.3174C80.3851 40.0455 80.8471 40.4827 81.6093 40.4827C82.3716 40.4827 82.8289 40.041 82.9698 39.3174C83.0137 39.0988 82.9906 38.8689 82.9906 38.6435C82.9906 30.8313 82.9952 23.0192 82.9883 15.207C82.9837 10.9876 80.0387 8.11383 75.7217 8.10706C71.5756 8.10256 67.4295 8.10706 63.2834 8.10706Z" fill="white"/>
<path d="M9.69173 22.956C8.79785 22.956 7.90627 22.938 7.01238 22.9606C6.12311 22.9831 5.54797 23.5285 5.54104 24.2949C5.53642 25.0612 6.11387 25.6337 6.99621 25.645C8.78168 25.6675 10.5695 25.6675 12.3549 25.645C13.2373 25.6337 13.8216 25.0725 13.8263 24.3107C13.8309 23.5443 13.2511 22.9853 12.3711 22.9606C11.4772 22.938 10.5833 22.956 9.69173 22.956Z" fill="white"/>
<path d="M9.6503 31.0524C10.5442 31.0524 11.4358 31.0682 12.3297 31.0479C13.2212 31.0276 13.8079 30.4957 13.8264 29.7361C13.8472 28.9449 13.242 28.3702 12.3089 28.3612C10.5511 28.3431 8.79337 28.3431 7.03792 28.3612C6.14404 28.3702 5.56197 28.9089 5.54349 29.6707C5.5227 30.4641 6.12556 31.0276 7.05871 31.0479C7.92027 31.0682 8.78413 31.0524 9.6503 31.0524Z" fill="white"/>
<path d="M9.604 36.4504C10.5256 36.4504 11.4472 36.4707 12.3688 36.4436C13.2488 36.4189 13.8286 35.8554 13.824 35.0913C13.8194 34.3272 13.2373 33.7682 12.3526 33.7592C10.5672 33.7389 8.7794 33.7367 6.99393 33.7592C6.1116 33.7705 5.53415 34.3407 5.54108 35.1071C5.5457 35.8734 6.12545 36.4189 7.01241 36.4414C7.87627 36.4684 8.74014 36.4504 9.604 36.4504Z" fill="white"/>
<path d="M8.97122 41.8511C9.63413 41.8511 10.297 41.8668 10.9599 41.8466C11.8469 41.8195 12.4313 41.2831 12.4428 40.5212C12.4544 39.7549 11.8769 39.1779 10.9992 39.1621C9.6757 39.1373 8.34988 39.1395 7.02406 39.1598C6.1348 39.1733 5.55273 39.7188 5.54118 40.4829C5.52963 41.2763 6.13018 41.824 7.07026 41.8488C7.70314 41.8646 8.33603 41.8511 8.97122 41.8511Z" fill="white"/>
<path d="M8.3776 47.2426C8.83956 47.2426 9.30152 47.2742 9.75885 47.2358C10.5257 47.1727 11.0546 46.6092 11.0593 45.9083C11.0639 45.205 10.5396 44.6078 9.77733 44.5717C8.80029 44.5266 7.81863 44.5266 6.84159 44.5694C6.07243 44.6032 5.54811 45.187 5.54349 45.8925C5.53887 46.5935 6.06319 47.1727 6.82542 47.2336C7.33819 47.2764 7.86021 47.2426 8.3776 47.2426Z" fill="white"/>
<path d="M57.3405 64.796C58.8789 67.8996 61.1355 70.0499 64.2029 71.3752C65.3324 71.8643 66.4735 72.3534 67.6515 72.7028C68.3444 72.9079 69.1228 72.8831 69.8619 72.8876C73.1072 72.9057 74.6917 74.4361 74.6917 77.5961C74.6917 78.1573 74.6963 78.7208 74.6917 79.2821C74.6801 80.533 74.2066 80.9838 72.8993 80.9928C72.7838 80.9928 72.6683 80.9928 72.5528 80.9928C61.0547 80.9928 49.5589 80.9928 38.0607 80.9928C37.7443 80.9928 37.4186 81.0244 37.1137 80.9613C36.4162 80.8148 35.9865 80.3752 35.9796 79.6675C35.9727 78.9192 36.4092 78.4616 37.153 78.3219C37.4602 78.2655 37.7859 78.2971 38.1023 78.2971C48.9953 78.2971 59.8859 78.2971 70.7789 78.2971C71.1208 78.2971 71.4649 78.2971 71.9107 78.2971C71.9107 77.7607 71.9661 77.2603 71.8968 76.7757C71.7998 76.0837 71.3425 75.6825 70.6218 75.6104C70.3354 75.5811 70.0467 75.5991 69.758 75.5991C51.0002 75.5991 32.2424 75.6171 13.4822 75.5743C11.1401 75.5698 10.8791 76.361 11.1424 78.2971C11.4358 78.2971 11.743 78.2971 12.0502 78.2971C18.4183 78.2971 24.7864 78.2971 31.1545 78.2971C31.4432 78.2971 31.7342 78.2791 32.016 78.3219C32.7182 78.4301 33.224 79.0138 33.1848 79.6788C33.1432 80.3842 32.7343 80.8193 32.0345 80.9658C31.785 81.0176 31.5171 80.9951 31.2584 80.9951C24.2574 80.9973 17.2541 80.9973 10.2532 80.9951C8.71715 80.9951 8.3037 80.5916 8.29908 79.104C8.29677 78.4571 8.29446 77.8102 8.29908 77.1634C8.31524 74.5984 10.0638 72.9868 12.7062 72.8809C18.1249 72.6622 22.2802 70.2618 25.1421 65.7539C25.3061 65.4969 25.4285 65.2129 25.6202 64.8433C25.2437 64.8253 24.948 64.8005 24.6501 64.8005C19.3491 64.7982 14.0458 64.8027 8.74487 64.7982C3.55015 64.7937 0.00230979 61.3384 0 56.2783C0 42.6104 0 28.9447 0.00230979 15.279C0.00230979 10.956 2.93112 8.10923 7.37516 8.10923C14.8681 8.10697 22.3588 8.10923 29.8517 8.10923C30.1104 8.10923 30.3784 8.08443 30.6278 8.13402C31.3693 8.28278 31.8058 8.73808 31.7966 9.48413C31.7873 10.1896 31.3577 10.6291 30.6578 10.7756C30.3807 10.8342 30.085 10.8072 29.7963 10.8072C22.3334 10.8095 14.8704 10.8072 7.4075 10.8095C4.41863 10.8095 2.76713 12.4278 2.76713 15.3579C2.76713 28.9672 2.76713 42.5766 2.76713 56.1859C2.76713 59.8981 5.03072 62.1002 8.84881 62.1002C31.0644 62.1002 53.2799 62.1002 75.4978 62.1002C78.6091 62.1002 80.2259 60.5157 80.2259 57.4661C80.2259 53.3887 80.2259 49.3114 80.2259 45.234C80.2259 44.9815 80.2121 44.7268 80.2375 44.4744C80.316 43.7261 80.8796 43.2122 81.6003 43.2077C82.3209 43.2032 82.9215 43.7148 82.9723 44.4609C83.0208 45.1618 82.9908 45.8651 82.9908 46.5683C82.9908 50.2805 82.9977 53.9905 82.9908 57.7028C82.9815 61.9154 80.0296 64.7915 75.708 64.7937C69.9451 64.8005 64.1821 64.796 58.4192 64.796C58.1051 64.796 57.7956 64.796 57.3405 64.796ZM21.9153 72.8471C35.058 72.8471 47.9628 72.8471 60.9415 72.8471C60.8329 72.7276 60.7937 72.6555 60.7313 72.6149C57.8787 70.7892 55.8276 68.3234 54.4903 65.267C54.3933 65.0461 53.996 64.8185 53.7373 64.8162C45.5906 64.7937 37.444 64.8005 29.2951 64.7847C28.8077 64.7847 28.5929 64.9425 28.4104 65.3662C28.0847 66.1123 27.7175 66.8493 27.2925 67.5458C25.9875 69.6757 24.2251 71.3842 21.9153 72.8471Z" fill="#13B237"/>
<path d="M35.0143 13.4286C34.8665 12.2205 34.6378 11.0416 34.6009 9.85833C34.557 8.40228 34.5177 6.91693 34.751 5.48793C35.2591 2.37298 38.0586 0.105513 41.2854 0.0198634C42.2347 -0.00492997 43.1887 -0.00492998 44.138 0.0176095C45.1035 0.037895 45.6324 0.545032 45.637 1.4962C45.6509 4.64496 45.6786 7.79597 45.6116 10.9447C45.5932 11.7877 45.2629 12.6262 45.122 13.2573C45.8288 13.6292 46.5956 13.9177 47.2262 14.3842C48.947 15.6577 50.6239 16.9898 52.2869 18.3332C52.7512 18.7073 53.1993 18.8268 53.7814 18.7389C55.516 18.4774 57.2553 18.234 58.9969 18.0131C61.2235 17.7314 63.2238 19.1739 63.5934 21.2993C63.9606 23.4135 62.5678 25.4782 60.3389 25.8478C57.8443 26.2625 55.3058 26.4316 52.8113 26.8508C51.3954 27.0897 50.2243 26.8328 49.0971 26.0214C48.5012 25.5931 47.8267 25.2685 47.0345 24.8087C47.0345 25.7554 46.9975 26.5803 47.0599 27.3985C47.076 27.6059 47.3671 27.8403 47.5842 27.9823C49.8293 29.4586 52.0767 30.9304 54.3427 32.373C55.0079 32.7945 55.3012 33.3264 55.3774 34.0972C55.68 37.0612 56.0542 40.0183 56.3637 42.98C56.4192 43.5029 56.6571 43.7509 57.1052 43.983C59.2487 45.0785 60.4567 46.8388 60.8101 49.1603C61.0457 50.702 60.5029 51.2993 58.9022 51.3016C55.9918 51.3038 53.0815 51.3038 50.1712 51.3016C49.0671 51.2993 48.4365 50.8192 48.418 49.983C48.3972 49.1153 49.0463 48.6059 50.1943 48.6036C52.6958 48.5991 55.195 48.6014 57.7103 48.6014C57.4078 47.1183 55.8209 45.9597 54.0378 45.9124C52.742 45.8786 51.4439 45.9079 50.1481 45.8989C49.007 45.8921 48.582 45.5495 48.3926 44.4744C48.0138 42.3151 47.665 40.1513 47.247 37.9988C47.18 37.6585 46.8728 37.2618 46.561 37.086C45.5932 36.5405 44.5722 36.0897 43.5005 35.5691C42.4749 37.5661 41.3916 39.4842 40.5001 41.4812C39.9411 42.7321 39.1304 43.2482 37.7606 43.3452C34.5731 43.5706 31.3972 43.938 28.212 44.2152C27.5283 44.2738 27.1102 44.4744 26.7499 45.119C25.5372 47.2738 23.5947 48.412 21.0839 48.5856C19.9337 48.6645 19.3724 48.1235 19.3678 46.9898C19.3585 44.0101 19.3585 41.0281 19.3678 38.0484C19.3724 36.9485 19.8829 36.412 21.0147 36.4684C24.4655 36.6397 27.8447 36.2159 31.2031 35.4744C31.8291 35.3369 32.0532 35.089 32.1432 34.5187C32.4689 32.4654 32.8269 30.4166 33.1849 28.3677C33.3559 27.3873 33.8017 27.0153 34.8249 27.0108C37.6198 27.0018 40.4146 27.0086 43.2095 27.0086C43.5213 27.0086 43.8354 27.0086 44.2604 27.0086C44.2604 25.5909 44.2558 24.2227 44.2604 22.8568C44.2673 21.1979 45.2767 20.6412 46.7457 21.4887C47.9353 22.1761 49.1526 22.8253 50.2867 23.5894C51.1089 24.1438 51.9289 24.2453 52.8782 24.1123C55.0448 23.808 57.2183 23.5623 59.3896 23.2941C60.3574 23.1746 60.9186 22.6224 60.847 21.8538C60.7708 21.0356 60.0987 20.5939 59.0731 20.7291C57.1329 20.9838 55.1927 21.234 53.2594 21.5383C52.5156 21.6555 51.9266 21.5157 51.3445 21.0492C49.4736 19.5525 47.5842 18.0762 45.6717 16.6292C45.3622 16.3948 44.9072 16.2302 44.5191 16.2257C41.4078 16.1942 38.2896 16.0972 35.1852 16.246C33.1272 16.3452 31.0969 16.9109 29.0389 17.0912C27.6622 17.2107 27.0178 17.7922 26.6205 19.0544C25.9946 21.0356 25.163 22.956 24.4054 24.8966C24.1652 25.5142 24.1144 26.0935 24.8096 26.4135C25.5049 26.7336 25.9299 26.3189 26.2717 25.7554C27.1795 24.2565 28.1265 22.7779 29.0158 21.2678C29.4338 20.5578 29.9813 20.2175 30.8336 20.2468C31.9839 20.2873 33.1388 20.249 34.2913 20.2603C35.467 20.2693 35.9452 20.7516 35.9613 21.9192C35.9659 22.228 35.9636 22.5368 35.959 22.8478C35.9498 23.6277 35.5594 24.1551 34.7741 24.2791C34.0188 24.3963 33.5129 24.0063 33.2496 23.3166C33.2104 23.2129 33.178 23.107 33.1434 23.0123C33.0695 22.9943 33.014 22.9808 32.9586 22.9695C31.7044 22.7351 30.8775 23.1431 30.3324 24.3399C29.8565 25.3835 29.1544 26.3324 28.533 27.3106C27.4105 29.0822 25.4171 29.7111 23.6132 28.8771C21.7884 28.0319 21.0262 26.089 21.7769 24.0987C22.7909 21.412 23.8488 18.7411 24.8581 16.0522C25.1376 15.3039 25.6181 14.9432 26.4242 14.8215C29.353 14.3707 32.2726 13.8749 35.0143 13.4286ZM53.6197 43.1671C53.3056 40.3474 53.0145 37.6111 52.6773 34.8794C52.6473 34.6314 52.3632 34.3587 52.1253 34.2009C49.9818 32.7809 47.8244 31.3812 45.6648 29.9838C45.48 29.8643 45.2582 29.7201 45.0504 29.7178C41.9737 29.6998 38.8948 29.7066 35.7927 29.7066C35.7303 29.977 35.668 30.1934 35.631 30.412C35.3215 32.24 35.0235 34.0702 34.7094 35.8981C34.4322 37.5029 34.2359 37.672 32.6052 37.9627C30.9722 38.2558 29.3461 38.5736 27.7338 38.8779C27.7338 39.8087 27.7338 40.6607 27.7338 41.5195C27.944 41.5195 28.0895 41.5307 28.2304 41.5172C31.2678 41.2265 34.3052 40.9492 37.338 40.6179C37.6244 40.5863 37.9755 40.2663 38.121 39.9913C39.2805 37.796 40.3892 35.5758 41.5302 33.3692C42.043 32.3797 42.7059 32.1701 43.7315 32.6592C45.152 33.3377 46.5286 34.1198 47.9884 34.7035C49.2981 35.2287 49.8593 36.0627 50.0095 37.4173C50.222 39.3377 50.6377 41.2355 50.9727 43.1649C51.855 43.1671 52.6819 43.1671 53.6197 43.1671ZM37.3518 8.14308C37.3518 9.13481 37.3218 10.0319 37.3587 10.929C37.4165 12.2813 38.516 13.3812 39.8695 13.4984C41.26 13.6179 42.6274 12.6848 42.8052 11.3166C42.9415 10.2798 42.833 9.21145 42.833 8.14533C40.9897 8.14308 39.2158 8.14308 37.3518 8.14308ZM22.1603 45.5518C24.4124 44.9162 25.3524 42.6126 24.805 39.2069C23.9342 39.2069 23.0611 39.2069 22.1603 39.2069C22.1603 41.3347 22.1603 43.4105 22.1603 45.5518ZM42.8445 2.74939C40.0127 2.57584 38.1187 3.5563 37.7376 5.35044C39.4376 5.35044 41.1353 5.35044 42.8445 5.35044C42.8445 4.46013 42.8445 3.63294 42.8445 2.74939Z" fill="#13B237"/>
<path d="M51.2195 56.6977C44.9392 56.6977 38.6566 56.7022 32.3763 56.6887C31.8381 56.6864 31.5263 56.7969 31.2422 57.3108C30.4869 58.6812 29.2373 59.3934 27.6412 59.3844C26.0451 59.3754 24.8117 58.6429 24.061 57.2725C23.7954 56.7879 23.5021 56.6819 22.9916 56.6864C20.5132 56.709 18.0371 56.7 15.5587 56.6955C14.4685 56.6932 13.8379 56.1861 13.8379 55.3453C13.8402 54.5024 14.4685 54.002 15.561 53.9997C18.0394 53.9952 20.5155 53.9862 22.9939 54.0065C23.4997 54.011 23.7977 53.9141 24.0656 53.4227C24.8117 52.0501 26.0498 51.3198 27.6458 51.313C29.2419 51.3063 30.4938 52.023 31.2398 53.3934C31.5286 53.9231 31.8566 54.002 32.3809 54.002C44.8561 53.993 57.3312 53.9952 69.8064 53.9952C70.0951 53.9952 70.3885 53.9704 70.6703 54.011C71.4209 54.1215 71.8575 54.5632 71.9106 55.3048C71.9591 55.999 71.4117 56.5873 70.6633 56.6774C70.407 56.709 70.1459 56.691 69.8873 56.691C63.667 56.6977 57.4421 56.6977 51.2195 56.6977ZM29.0409 55.316C29.0248 54.5925 28.3965 53.9975 27.6551 54.002C26.9136 54.0065 26.2946 54.6106 26.2877 55.3341C26.2807 56.0937 26.9436 56.7225 27.7151 56.691C28.4565 56.6617 29.0571 56.0396 29.0409 55.316Z" fill="#13B237"/>
<path d="M77.4588 37.8298C77.4588 41.2874 77.4611 44.7472 77.4565 48.2047C77.4542 49.4782 76.983 49.9425 75.6987 49.9493C74.0842 49.9561 72.472 49.9583 70.8574 49.9493C69.6632 49.9425 69.162 49.467 69.1597 48.3197C69.1551 41.319 69.1551 34.3182 69.1597 27.3152C69.1597 26.1499 69.6517 25.6653 70.8274 25.6585C72.4419 25.6495 74.0542 25.6518 75.6687 25.6563C77.0038 25.6608 77.4542 26.1138 77.4565 27.4549C77.4611 30.9125 77.4588 34.37 77.4588 37.8298ZM71.9754 28.3926C71.9754 29.3235 71.9754 30.1529 71.9754 30.9981C72.8946 30.9981 73.7654 30.9981 74.6293 30.9981C74.6293 30.0921 74.6293 29.2423 74.6293 28.3926C73.7146 28.3926 72.8623 28.3926 71.9754 28.3926ZM74.6593 33.8178C73.7008 33.8178 72.8277 33.8178 71.9684 33.8178C71.9684 34.7149 71.9684 35.5443 71.9684 36.4008C72.8831 36.4008 73.7539 36.4008 74.6593 36.4008C74.6593 35.5218 74.6593 34.6924 74.6593 33.8178ZM74.6524 39.2093C73.7146 39.2093 72.8438 39.2093 71.9938 39.2093C71.9938 40.1199 71.9938 40.9718 71.9938 41.8058C72.9131 41.8058 73.7654 41.8058 74.6524 41.8058C74.6524 40.9335 74.6524 40.1041 74.6524 39.2093ZM71.9892 44.5872C71.9892 45.509 71.9892 46.3588 71.9892 47.1815C72.9247 47.1815 73.7978 47.1815 74.6455 47.1815C74.6455 46.2821 74.6455 45.4504 74.6455 44.5872C73.7493 44.5872 72.897 44.5872 71.9892 44.5872Z" fill="#13B237"/>
<path d="M63.2836 8.10725C67.4296 8.10725 71.578 8.10274 75.7241 8.10951C80.0411 8.11627 82.9861 10.99 82.9907 15.2094C82.9976 23.0216 82.993 30.8338 82.993 38.6459C82.993 38.8713 83.0138 39.1012 82.9722 39.3199C82.829 40.0434 82.374 40.4851 81.6118 40.4851C80.8495 40.4851 80.3876 40.0479 80.2513 39.3199C80.2005 39.0471 80.2282 38.7586 80.2282 38.4791C80.2282 30.7797 80.2282 23.0802 80.2282 15.3807C80.2282 12.4033 78.5906 10.8097 75.5301 10.8097C67.1779 10.8097 58.828 10.8097 50.4758 10.8075C50.1593 10.8075 49.8313 10.839 49.5287 10.7692C48.8381 10.6069 48.4224 10.1561 48.4293 9.44609C48.4362 8.73836 48.8543 8.29658 49.5518 8.14331C49.8267 8.08246 50.1247 8.10951 50.4134 8.10951C54.7004 8.10725 58.992 8.10725 63.2836 8.10725Z" fill="#13B237"/>
<path d="M9.69173 22.956C10.5856 22.956 11.4795 22.938 12.3711 22.9606C13.2534 22.9853 13.8309 23.5443 13.8263 24.3107C13.8216 25.0725 13.2373 25.6337 12.3549 25.645C10.5695 25.6653 8.78168 25.6676 6.99621 25.645C6.11618 25.6337 5.53642 25.0612 5.54104 24.2949C5.54566 23.5286 6.12311 22.9831 7.01238 22.9606C7.90396 22.938 8.79785 22.956 9.69173 22.956Z" fill="#13B237"/>
<path d="M9.6503 31.0524C8.78644 31.0524 7.92027 31.0682 7.05871 31.0479C6.12556 31.0276 5.5227 30.4641 5.54349 29.6707C5.56197 28.9089 6.14635 28.3702 7.03792 28.3612C8.79568 28.3431 10.5534 28.3431 12.3089 28.3612C13.242 28.3702 13.8472 28.9449 13.8264 29.7361C13.8079 30.4957 13.2212 31.0276 12.3297 31.0479C11.4358 31.0682 10.5419 31.0524 9.6503 31.0524Z" fill="#13B237"/>
<path d="M9.60396 36.4503C8.7401 36.4503 7.87393 36.4683 7.01238 36.4458C6.12542 36.421 5.54566 35.8756 5.54104 35.1115C5.53642 34.3451 6.11387 33.7749 6.9939 33.7636C8.77937 33.7411 10.5671 33.7433 12.3526 33.7636C13.2373 33.7749 13.8193 34.3316 13.8239 35.0957C13.8286 35.8598 13.2488 36.4233 12.3688 36.4481C11.4495 36.4706 10.5256 36.4503 9.60396 36.4503Z" fill="#13B237"/>
<path d="M8.97122 41.8509C8.33834 41.8509 7.70315 41.8645 7.07026 41.8487C6.13018 41.8239 5.52963 41.2762 5.54118 40.4828C5.55273 39.7187 6.1348 39.1755 7.02407 39.1597C8.34989 39.1394 9.67571 39.1349 10.9992 39.162C11.8746 39.18 12.4544 39.757 12.4428 40.5211C12.4313 41.2829 11.8469 41.8194 10.96 41.8464C10.297 41.8667 9.63413 41.8509 8.97122 41.8509Z" fill="#13B237"/>
<path d="M8.37747 47.2425C7.86008 47.2425 7.33806 47.2763 6.82298 47.2335C6.06075 47.1704 5.53643 46.5934 5.54105 45.8924C5.54567 45.1869 6.0723 44.6031 6.83915 44.5693C7.81619 44.5265 8.79785 44.5242 9.77489 44.5716C10.5371 44.6076 11.0614 45.2072 11.0568 45.9082C11.0522 46.6091 10.5233 47.1726 9.75641 47.2357C9.30138 47.2741 8.83943 47.2425 8.37747 47.2425Z" fill="#13B237"/>
<path d="M21.915 72.847C24.2248 71.3842 25.9872 69.6757 27.2899 67.5457C27.7149 66.8493 28.0822 66.1145 28.4079 65.3662C28.5926 64.9424 28.8075 64.7847 29.2925 64.7847C37.4391 64.8004 45.5858 64.7914 53.7347 64.8162C53.9934 64.8162 54.3907 65.0461 54.4877 65.267C55.8251 68.3234 57.8762 70.7892 60.7288 72.6149C60.7911 72.6554 60.8327 72.7276 60.9389 72.847C47.9625 72.847 35.0577 72.847 21.915 72.847Z" fill="white"/>
<path d="M53.6195 43.1674C52.6817 43.1674 51.8572 43.1674 50.9702 43.1674C50.6376 41.238 50.2195 39.3402 50.007 37.4198C49.8569 36.063 49.2956 35.229 47.986 34.7061C46.5262 34.1223 45.1518 33.3402 43.729 32.6618C42.7035 32.1727 42.0406 32.3823 41.5278 33.3718C40.3868 35.5761 39.2781 37.7962 38.1185 39.9938C37.973 40.2688 37.6219 40.5889 37.3355 40.6204C34.3028 40.9518 31.2654 41.229 28.228 41.5198C28.0872 41.5333 27.9416 41.522 27.7314 41.522C27.7314 40.6633 27.7314 39.809 27.7314 38.8804C29.3437 38.5761 30.9721 38.2583 32.6028 37.9653C34.2335 37.6723 34.4298 37.5032 34.707 35.9007C35.0211 34.0727 35.3191 32.2425 35.6286 30.4146C35.6656 30.1959 35.7279 29.9818 35.7903 29.7091C38.8923 29.7091 41.9713 29.7046 45.0479 29.7204C45.2535 29.7226 45.4752 29.8669 45.6623 29.9863C47.822 31.3838 49.9793 32.7835 52.1228 34.2035C52.3607 34.3612 52.6448 34.634 52.6748 34.8819C53.0144 37.6114 53.3054 40.3477 53.6195 43.1674Z" fill="white"/>
<path d="M37.3518 8.14307C39.2158 8.14307 40.9898 8.14307 42.833 8.14307C42.833 9.21144 42.9415 10.2776 42.8052 11.3144C42.6274 12.6825 41.26 13.6156 39.8695 13.4962C38.516 13.379 37.4165 12.2791 37.3588 10.9267C37.3218 10.0319 37.3518 9.1348 37.3518 8.14307Z" fill="white"/>
<path d="M22.1602 45.5519C22.1602 43.4107 22.1602 41.337 22.1602 39.207C23.061 39.207 23.9341 39.207 24.8049 39.207C25.3523 42.6128 24.4122 44.9163 22.1602 45.5519Z" fill="white"/>
<path d="M42.8442 2.74966C42.8442 3.6332 42.8442 4.4604 42.8442 5.35071C41.135 5.35071 39.4373 5.35071 37.7373 5.35071C38.1184 3.55657 40.0124 2.57385 42.8442 2.74966Z" fill="white"/>
<path d="M29.0409 55.316C29.0571 56.0372 28.4565 56.6616 27.7151 56.6909C26.9436 56.7224 26.2807 56.0936 26.2877 55.334C26.2946 54.6105 26.9136 54.0065 27.655 54.002C28.3965 53.9975 29.0247 54.5925 29.0409 55.316Z" fill="white"/>
<path d="M71.9756 28.3926C72.8649 28.3926 73.7149 28.3926 74.6295 28.3926C74.6295 29.2423 74.6295 30.0921 74.6295 30.9982C73.7657 30.9982 72.8949 30.9982 71.9756 30.9982C71.9756 30.1552 71.9756 29.3235 71.9756 28.3926Z" fill="white"/>
<path d="M74.6592 33.8179C74.6592 34.6924 74.6592 35.5219 74.6592 36.4009C73.756 36.4009 72.8853 36.4009 71.9683 36.4009C71.9683 35.5444 71.9683 34.7127 71.9683 33.8179C72.8298 33.8179 73.7006 33.8179 74.6592 33.8179Z" fill="white"/>
<path d="M74.6522 39.2095C74.6522 40.1043 74.6522 40.9337 74.6522 41.806C73.763 41.806 72.9129 41.806 71.9937 41.806C71.9937 40.9698 71.9937 40.1201 71.9937 39.2095C72.8437 39.2095 73.7144 39.2095 74.6522 39.2095Z" fill="white"/>
<path d="M71.9893 44.5874C72.897 44.5874 73.7493 44.5874 74.6455 44.5874C74.6455 45.4529 74.6455 46.2824 74.6455 47.1817C73.7955 47.1817 72.9247 47.1817 71.9893 47.1817C71.9893 46.359 71.9893 45.5093 71.9893 44.5874Z" fill="white"/>
</g>
<defs>
<clipPath id="clip0_2_129">
<rect width="83" height="81" fill="white"/>
</clipPath>
</defs>
</svg>
