<svg width="100" height="81" viewBox="0 0 100 81" fill="none" xmlns="http://www.w3.org/2000/svg">
<path d="M91.0321 0H8.46797C6.33371 0.00240381 4.28756 0.851299 2.77841 2.36045C1.26927 3.86959 0.420373 5.91575 0.417969 8.05V71.6244C0.420591 73.9775 1.35654 76.2336 3.02048 77.8975C4.68442 79.5614 6.94045 80.4974 9.29361 80.5H90.2064C92.5596 80.4974 94.8156 79.5614 96.4796 77.8975C98.1435 76.2336 99.0795 73.9775 99.0821 71.6244V8.05C99.0797 5.91575 98.2308 3.86959 96.7216 2.36045C95.2125 0.851299 93.1663 0.00240381 91.0321 0ZM96.1923 8.05V17.696H40.5755L47.5786 2.88974H91.0321C92.4002 2.89127 93.7118 3.43543 94.6792 4.40284C95.6466 5.37024 96.1908 6.68188 96.1923 8.05ZM8.46797 2.88974H44.3834L37.3786 17.696H3.30771V8.05C3.30924 6.68188 3.8534 5.37024 4.82081 4.40284C5.78821 3.43543 7.09985 2.89127 8.46797 2.88974ZM20.8105 62.2946L14.3606 55.7217L19.2401 49.6293L27.0763 54.4865C27.3362 54.6478 27.6407 54.7223 27.9457 54.6995C28.2508 54.6766 28.5407 54.5575 28.7738 54.3594C33.0158 50.7519 38.1166 48.2994 43.5833 47.239C43.884 47.181 44.1585 47.0289 44.3672 46.8049C44.576 46.5809 44.7082 46.2964 44.745 45.9923L45.8456 36.8484H53.6545L54.7559 45.9956C54.7923 46.2996 54.9244 46.5842 55.133 46.8083C55.3417 47.0323 55.6161 47.1843 55.9167 47.2424C61.3834 48.3027 66.4842 50.7552 70.7263 54.3627C70.9594 54.5606 71.2493 54.6795 71.5543 54.7024C71.8593 54.7252 72.1637 54.6508 72.4238 54.4898L80.2599 49.6326L85.1395 55.725L78.6896 62.2946C78.4755 62.5128 78.3362 62.7932 78.2917 63.0956C78.2472 63.398 78.2998 63.7067 78.4419 63.9773C80.6633 68.1925 81.9181 72.8496 82.1152 77.6103H72.0646C71.6994 71.9403 69.1896 66.6221 65.0449 62.7358C60.9003 58.8495 55.4317 56.6866 49.75 56.6866C44.0684 56.6866 38.5997 58.8495 34.4551 62.7358C30.3104 66.6221 27.8006 71.9403 27.4354 77.6103H17.3849C17.5827 72.8506 18.8377 68.1947 21.059 63.9806C21.2018 63.7095 21.2546 63.4001 21.21 63.097C21.1653 62.794 21.0254 62.5129 20.8105 62.2946ZM69.1674 77.6103H30.3326C30.6945 72.7079 32.8974 68.1239 36.499 64.7784C40.1006 61.4328 44.8343 59.5735 49.75 59.5735C54.6657 59.5735 59.3995 61.4328 63.0011 64.7784C66.6027 68.1239 68.8055 72.7079 69.1674 77.6103ZM90.2064 77.6103H85.0049C84.822 72.7392 83.6201 67.9606 81.4769 63.5826L88.0994 56.8338C88.3469 56.5817 88.4935 56.2477 88.5113 55.8948C88.5291 55.542 88.4169 55.1949 88.196 54.9192L81.7147 46.8279C81.4941 46.552 81.18 46.3665 80.8319 46.3066C80.4838 46.2466 80.1258 46.3164 79.8256 46.5026L71.7814 51.4886C67.6022 48.1467 62.7179 45.7986 57.4978 44.6218L56.37 35.2309C56.3276 34.8801 56.1582 34.557 55.8939 34.3226C55.6295 34.0882 55.2884 33.9587 54.935 33.9586H44.565C44.2117 33.9587 43.8706 34.0882 43.6062 34.3226C43.3418 34.557 43.1724 34.8801 43.13 35.2309L41.9997 44.6209C36.7796 45.7977 31.8954 48.1459 27.7161 51.4878L19.6719 46.5018C19.3717 46.3155 19.0137 46.2458 18.6656 46.3058C18.3175 46.3657 18.0034 46.5512 17.7829 46.8271L11.3016 54.9183C11.0807 55.194 10.9685 55.5412 10.9863 55.894C11.0041 56.2469 11.1506 56.5809 11.3982 56.833L18.0206 63.5818C15.8782 67.9603 14.6772 72.7391 14.4951 77.6103H9.29361C7.70659 77.6085 6.18507 76.9773 5.06287 75.8551C3.94068 74.7329 3.30946 73.2114 3.30771 71.6244V20.5857H96.1923V71.6244C96.1906 73.2114 95.5594 74.7329 94.4372 75.8551C93.315 76.9773 91.7935 77.6085 90.2064 77.6103Z" fill="#FA6444"/>
<path d="M14.7181 15.0398C15.6571 15.0398 16.575 14.7614 17.3557 14.2397C18.1364 13.7181 18.7449 12.9766 19.1042 12.1091C19.4635 11.2416 19.5575 10.2871 19.3744 9.36618C19.1912 8.44527 18.739 7.59936 18.0751 6.93542C17.4111 6.27148 16.5652 5.81933 15.6443 5.63614C14.7234 5.45296 13.7689 5.54698 12.9014 5.9063C12.0339 6.26562 11.2924 6.87411 10.7708 7.65483C10.2491 8.43554 9.9707 9.35341 9.9707 10.2924C9.97201 11.5511 10.4726 12.7578 11.3626 13.6479C12.2527 14.5379 13.4594 15.0385 14.7181 15.0398ZM14.7181 8.43467C15.0856 8.43467 15.4447 8.54362 15.7502 8.74775C16.0557 8.95187 16.2938 9.242 16.4344 9.58145C16.575 9.9209 16.6118 10.2944 16.5401 10.6548C16.4685 11.0151 16.2915 11.3461 16.0317 11.6059C15.7719 11.8657 15.4409 12.0427 15.0806 12.1144C14.7202 12.186 14.3467 12.1492 14.0072 12.0086C13.6678 11.868 13.3777 11.6299 13.1735 11.3244C12.9694 11.0189 12.8604 10.6598 12.8604 10.2924C12.8611 9.79987 13.057 9.32774 13.4053 8.9795C13.7535 8.63125 14.2256 8.43532 14.7181 8.43467ZM27.9746 15.0398C28.9136 15.0398 29.8315 14.7614 30.6122 14.2397C31.3929 13.7181 32.0014 12.9766 32.3607 12.1091C32.72 11.2416 32.814 10.2871 32.6308 9.36618C32.4477 8.44527 31.9955 7.59936 31.3316 6.93542C30.6676 6.27148 29.8217 5.81933 28.9008 5.63614C27.9799 5.45296 27.0253 5.54698 26.1579 5.9063C25.2904 6.26562 24.5489 6.87411 24.0273 7.65483C23.5056 8.43554 23.2272 9.35341 23.2272 10.2924C23.2285 11.5511 23.7291 12.7578 24.6191 13.6479C25.5092 14.5379 26.7159 15.0385 27.9746 15.0398ZM27.9746 8.43467C28.342 8.43467 28.7012 8.54362 29.0067 8.74775C29.3122 8.95187 29.5503 9.242 29.6909 9.58145C29.8315 9.9209 29.8683 10.2944 29.7966 10.6548C29.725 11.0151 29.548 11.3461 29.2882 11.6059C29.0284 11.8657 28.6974 12.0427 28.337 12.1144C27.9767 12.186 27.6032 12.1492 27.2637 12.0086C26.9243 11.868 26.6341 11.6299 26.43 11.3244C26.2259 11.0189 26.1169 10.6598 26.1169 10.2924C26.1176 9.79987 26.3135 9.32774 26.6618 8.9795C27.01 8.63125 27.4821 8.43532 27.9746 8.43467ZM52.658 11.7372H89.6013C89.9845 11.7372 90.352 11.585 90.623 11.314C90.894 11.0431 91.0462 10.6756 91.0462 10.2924C91.0462 9.90916 90.894 9.54165 90.623 9.27068C90.352 8.99972 89.9845 8.84749 89.6013 8.84749H52.658C52.2748 8.84749 51.9073 8.99972 51.6363 9.27068C51.3653 9.54165 51.2131 9.90916 51.2131 10.2924C51.2131 10.6756 51.3653 11.0431 51.6363 11.314C51.9073 11.585 52.2748 11.7372 52.658 11.7372Z" fill="#FA6444"/>
</svg>
