<svg width="92" height="81" viewBox="0 0 92 81" fill="none" xmlns="http://www.w3.org/2000/svg">
<path d="M32.3716 80.6589C14.7475 80.6589 0.408691 66.1726 0.408691 48.3661C0.408691 30.5589 14.7475 16.0718 32.3716 16.0718V18.9223C16.3189 18.9223 3.25921 32.1309 3.25921 48.3661C3.25921 64.6005 16.3189 77.8084 32.3716 77.8084C45.189 77.8084 56.3609 69.5006 60.1713 57.1343L62.895 57.9738C58.7147 71.5422 46.4482 80.6589 32.3716 80.6589Z" fill="#44D4D7"/>
<path d="M38.5914 19.5665C36.5514 19.1204 34.4691 18.8955 32.3809 18.8959V16.0454C34.6798 16.0454 36.9745 16.2941 39.2029 16.7823L38.5914 19.5665Z" fill="#44D4D7"/>
<path d="M32.3808 80.6843C21.6671 80.6843 13.2744 66.4873 13.2744 48.3637C13.2744 30.2408 21.6671 16.0444 32.3808 16.0444V18.895C23.4173 18.895 16.1249 32.115 16.1249 48.3637C16.1249 64.6138 23.4173 77.8338 32.3808 77.8338C40.2767 77.8338 47.1743 67.1543 48.4256 52.9915L51.2648 53.2423C49.8602 69.1433 41.9179 80.6843 32.3808 80.6843Z" fill="#44D4D7"/>
<path d="M30.9551 17.4702H33.8056V79.2574H30.9551V17.4702Z" fill="#44D4D7"/>
<path d="M60.9524 60.6782H2.81241L2.46678 59.7497C1.08998 56.049 0.391602 52.2186 0.391602 48.364C0.391602 44.5037 1.09141 40.6718 2.47106 36.974L2.8174 36.0469H40.125V38.8974H4.81276C3.77658 41.9462 3.24603 45.1439 3.24213 48.364C3.24213 51.5573 3.76876 54.7356 4.80991 57.8277H60.9524V60.6782Z" fill="#44D4D7"/>
<path d="M68.5127 55.819H58.5337L57.9458 48.6991C56.1557 48.1712 54.4433 47.4088 52.8533 46.4315L47.6483 50.8826L40.6068 43.7605L45.1655 38.3103C44.2644 36.6513 43.5856 34.8809 43.1466 33.0447L36.3552 32.4725V22.4187L43.3982 21.8243C43.9207 20.0111 44.6785 18.2741 45.6522 16.6577L41.2538 11.4021L48.2996 4.28149L53.6964 8.89862C55.3284 7.99473 57.0732 7.31153 58.885 6.86691L59.4509 0H69.4313L70.0185 7.12203C71.8088 7.64937 73.5212 8.41189 75.1109 9.38962L80.3146 4.93853L87.3596 12.0606L82.7981 17.5093C83.6985 19.1695 84.3774 20.9405 84.8177 22.7771L91.6083 23.3472V33.4017L84.5661 33.9946C84.0438 35.8085 83.2857 37.546 82.3114 39.1626L86.7104 44.4169L79.6654 51.5382L74.2665 46.9218C72.6347 47.8248 70.8905 48.5075 69.0792 48.952L68.5127 55.819ZM61.1583 52.9684H65.8874L66.4133 46.5918L67.4751 46.3873C69.671 45.9665 71.7711 45.1467 73.6714 43.9686L74.5565 43.4206L79.5015 47.6501L82.858 44.2572L78.7675 39.3721L79.3646 38.4828C80.6251 36.6106 81.5372 34.5262 82.057 32.3299L82.2957 31.3258L88.7578 30.7814V25.9683L82.4468 25.4374L82.2458 24.372C81.83 22.1522 81.0182 20.0253 79.8492 18.093L79.3219 17.2207L83.51 12.2188L80.1549 8.82665L75.3247 12.9585L74.4225 12.3392C72.5798 11.0704 70.5203 10.1497 68.3459 9.62265L67.3461 9.37965L66.8081 2.8491H62.0769L61.5517 9.22786L60.4892 9.43238C58.2931 9.85185 56.193 10.6717 54.2936 11.8511L53.4078 12.3998L48.4628 8.1696L45.107 11.561L49.1968 16.4475L48.5997 17.3369C47.3404 19.2094 46.4287 21.2934 45.908 23.489L45.6693 24.4917L39.2079 25.0376V29.8514L45.5218 30.383L45.722 31.4491C46.1354 33.6676 46.9469 35.7929 48.1172 37.7224L48.646 38.594L44.4586 43.5995L47.8129 46.9916L52.6431 42.8612L53.5453 43.4805C55.3881 44.7488 57.4472 45.6694 59.6212 46.197L60.6203 46.44L61.1583 52.9684Z" fill="#44D4D7"/>
<path d="M63.9826 40.311C57.2098 40.311 51.7004 34.7475 51.7004 27.9105C51.7004 21.0721 57.2098 15.5093 63.9826 15.5093C70.7548 15.5093 76.2641 21.0728 76.2641 27.9105C76.2648 34.7475 70.7548 40.311 63.9826 40.311ZM63.9826 18.3591C58.7819 18.3591 54.551 22.6434 54.551 27.9098C54.551 33.1761 58.7826 37.4597 63.9826 37.4597C69.1827 37.4597 73.4136 33.1754 73.4136 27.9098C73.4143 22.6434 69.1834 18.3591 63.9826 18.3591Z" fill="#44D4D7"/>
</svg>
